<?xml version="1.0" standalone="no"?>
<!DOCTYPE svg PUBLIC "-//W3C//DTD SVG 20010904//EN"
 "http://www.w3.org/TR/2001/REC-SVG-20010904/DTD/svg10.dtd">
<svg version="1.0" xmlns="http://www.w3.org/2000/svg"
 width="200.000000pt" height="200.000000pt" viewBox="0 0 200.000000 200.000000"
 preserveAspectRatio="xMidYMid meet">

<g transform="translate(0.000000,200.000000) scale(0.100000,-0.100000)"
fill="#000000" stroke="none">
<path d="M1590 1528 c-14 -5 -54 -14 -89 -18 -92 -12 -132 -44 -207 -163 -101
-162 -119 -174 -365 -258 -183 -62 -220 -84 -285 -170 l-39 -51 -101 7 c-82 5
-102 4 -113 -8 -10 -13 -6 -20 23 -42 l36 -27 -20 -28 c-27 -39 -25 -50 10
-50 39 0 136 41 214 90 91 57 134 65 277 50 65 -7 130 -9 143 -6 16 4 30 21
45 53 l21 48 -5 -43 c-6 -48 -33 -108 -72 -159 -21 -29 -22 -33 -6 -33 35 0
118 47 153 86 19 21 44 59 55 84 l20 44 5 -29 5 -29 41 37 c53 48 89 128 127
286 l30 126 73 70 c66 63 74 74 74 108 0 39 -7 43 -50 25z"/>
<path d="M341 603 c-27 -107 -33 -125 -38 -139 -3 -9 2 -14 14 -14 16 0 22 12
33 58 7 31 15 61 17 66 3 4 18 -20 34 -55 15 -35 35 -65 43 -67 11 -3 26 17
47 65 l32 68 16 -65 c12 -45 22 -66 34 -68 21 -4 21 -6 -7 98 -30 110 -43 113
-86 18 l-33 -73 -34 73 c-19 40 -40 72 -48 72 -8 0 -18 -16 -24 -37z"/>
<path d="M940 625 c0 -8 7 -15 15 -15 8 0 15 7 15 15 0 8 -7 15 -15 15 -8 0
-15 -7 -15 -15z"/>
<path d="M1220 545 l0 -95 64 0 c55 0 69 4 95 26 26 21 31 33 31 67 -1 71 -38
97 -136 97 l-54 0 0 -95z m150 55 c12 -12 20 -33 20 -55 0 -52 -28 -75 -90
-75 l-50 0 0 75 0 75 50 0 c37 0 55 -5 70 -20z"/>
<path d="M1450 545 l0 -95 70 0 c57 0 74 4 91 21 20 20 19 56 -4 71 -7 4 -7
12 2 22 18 22 6 62 -21 70 -13 3 -49 6 -80 6 l-58 0 0 -95z m145 45 c0 -24 -3
-25 -62 -28 l-63 -3 0 31 0 31 63 -3 c59 -3 62 -4 62 -28z m0 -85 c0 -30 0
-30 -62 -33 l-63 -3 0 36 0 36 63 -3 c62 -3 62 -3 62 -33z"/>
<path d="M620 563 c-25 -32 -20 -69 12 -95 23 -21 68 -24 86 -6 9 9 12 9 12 0
0 -7 9 -12 20 -12 18 0 20 7 20 70 0 63 -2 70 -20 70 -11 0 -20 -5 -20 -12 0
-9 -3 -9 -12 0 -22 22 -75 14 -98 -15z m91 -3 c39 -21 16 -90 -30 -90 -16 0
-41 30 -41 50 0 20 25 50 41 50 6 0 19 -5 30 -10z"/>
<path d="M810 520 c0 -63 2 -70 20 -70 17 0 20 7 20 50 0 43 3 52 23 59 12 5
25 7 28 5 4 -2 9 3 13 11 6 18 -39 22 -50 4 -4 -8 -9 -8 -17 0 -27 27 -37 11
-37 -59z"/>
<path d="M942 523 c3 -62 5 -68 26 -71 15 -2 22 2 22 12 0 9 -4 16 -10 16 -5
0 -10 25 -10 55 0 43 -3 55 -15 55 -13 0 -15 -12 -13 -67z"/>
<path d="M1025 570 c-25 -27 -22 -80 6 -102 24 -21 69 -24 87 -6 9 9 12 9 12
0 0 -7 9 -12 20 -12 18 0 20 7 20 70 0 63 -2 70 -20 70 -11 0 -20 -5 -20 -12
0 -9 -3 -9 -12 0 -19 19 -73 14 -93 -8z m95 -20 c11 -11 20 -24 20 -30 0 -14
-37 -50 -52 -50 -18 0 -48 31 -48 51 0 21 26 49 46 49 8 0 23 -9 34 -20z"/>
</g>
</svg>
