<?xml version="1.0" standalone="no"?>
<!DOCTYPE svg PUBLIC "-//W3C//DTD SVG 20010904//EN"
 "http://www.w3.org/TR/2001/REC-SVG-20010904/DTD/svg10.dtd">
<svg version="1.0" xmlns="http://www.w3.org/2000/svg"
 width="259.000000pt" height="194.000000pt" viewBox="0 0 259.000000 194.000000"
 preserveAspectRatio="xMidYMid meet">

<g transform="translate(0.000000,194.000000) scale(0.100000,-0.100000)"
fill="#000000" stroke="none">
<path d="M1182 1898 c-70 -9 -255 -56 -566 -143 -110 -30 -265 -70 -344 -89
-95 -22 -150 -40 -163 -53 -14 -13 -21 -39 -26 -87 l-6 -67 34 5 c19 3 79 13
134 22 107 17 271 57 621 152 296 80 390 96 524 87 133 -9 338 -52 502 -104
252 -80 410 -108 563 -99 124 8 143 26 110 103 -20 48 -78 72 -208 84 -127 12
-281 45 -525 110 -311 84 -477 104 -650 79z"/>
<path d="M1210 1464 c-8 -1 -62 -10 -120 -19 -57 -9 -227 -48 -377 -85 -150
-38 -335 -79 -411 -91 -131 -21 -139 -24 -173 -58 -41 -40 -57 -99 -40 -143 8
-22 20 -28 68 -38 32 -6 186 -45 343 -85 525 -136 580 -146 865 -152 l230 -5
-60 -55 c-303 -276 -532 -432 -738 -503 -165 -57 -443 -28 -556 57 -61 47 -86
137 -58 206 18 41 37 57 80 64 29 4 37 2 46 -16 8 -14 9 -27 2 -39 -15 -28 5
-42 59 -42 55 0 110 26 127 60 7 14 13 55 13 92 0 90 -19 113 -115 132 -80 16
-162 9 -216 -19 -55 -29 -155 -135 -162 -174 -14 -71 -7 -214 12 -256 40 -85
177 -187 306 -228 101 -31 294 -30 420 2 304 79 553 238 914 586 97 93 177
163 183 159 16 -10 3 -169 -26 -304 -14 -63 -34 -157 -45 -208 -11 -52 -23
-141 -27 -198 -6 -100 -6 -104 13 -104 27 0 105 84 136 146 36 74 66 170 76
252 10 81 24 108 76 148 19 14 35 35 35 45 0 10 -14 40 -31 67 -86 139 -32
207 290 363 102 50 191 96 198 101 9 7 8 20 -6 55 -27 70 -52 91 -119 97 -188
18 -265 33 -522 96 -157 39 -323 77 -370 85 -74 13 -276 19 -320 9z m-152
-191 c5 -10 12 -37 15 -61 8 -63 38 -114 79 -135 119 -59 332 -31 385 50 10
15 28 56 40 92 13 39 28 67 37 69 23 5 543 -90 650 -119 l39 -11 -54 -31 c-98
-56 -250 -118 -364 -147 -153 -39 -330 -54 -584 -47 -224 6 -228 7 -526 87
-104 28 -241 60 -304 70 -62 11 -116 22 -119 25 -13 13 27 27 253 85 354 92
437 105 453 73z"/>
</g>
</svg>
